<svg width="45" height="43" viewBox="0 0 45 43" fill="none" xmlns="http://www.w3.org/2000/svg">
<rect width="44.6111" height="42.8752" rx="5" fill="white"/>
<path d="M8.0553 16.709V16.6877C8.05527 14.5764 8.68054 12.5125 9.85223 10.7562C11.0239 8.99994 12.6895 7.63004 14.6389 6.81934C16.5883 6.00865 18.7341 5.79347 20.8056 6.20097C22.8772 6.60847 24.7816 7.62038 26.2787 9.10903C27.4566 8.52766 28.7723 8.28322 30.0804 8.40273C31.3885 8.52223 32.6381 9.00102 33.6911 9.7862C34.7442 10.5714 35.5597 11.6324 36.0475 12.852C36.5354 14.0716 36.6766 15.4023 36.4556 16.6972C36.7805 16.7273 37.0958 16.8241 37.3817 16.9816C37.6676 17.139 37.918 17.3537 38.1172 17.6122C38.3165 17.8707 38.4603 18.1675 38.5397 18.4841C38.6191 18.8007 38.6324 19.1302 38.5788 19.4522C37.5053 25.9098 34.85 29.9972 30.6178 31.7167V33.3127C30.6178 34.2575 30.2425 35.1636 29.5744 35.8317C28.9063 36.4998 28.0001 36.8752 27.0553 36.8752H17.5553C16.6105 36.8752 15.7043 36.4998 15.0362 35.8317C14.3681 35.1636 13.9928 34.2575 13.9928 33.3127V31.7167C9.76055 29.9972 7.1053 25.9098 6.0318 19.4522C5.97999 19.1388 5.99158 18.8182 6.06587 18.5093C6.14016 18.2005 6.27565 17.9097 6.46432 17.6541C6.653 17.3986 6.89101 17.1835 7.16429 17.0216C7.43756 16.8596 7.74055 16.7542 8.0553 16.7114V16.709ZM10.4303 16.6877H12.8053C12.8053 15.1129 13.4309 13.6027 14.5444 12.4892C15.6579 11.3757 17.1681 10.7502 18.7428 10.7502C20.3175 10.7502 21.8278 11.3757 22.9412 12.4892C24.0547 13.6027 24.6803 15.1129 24.6803 16.6877H27.0553C27.0553 14.483 26.1795 12.3687 24.6206 10.8098C23.0617 9.25094 20.9474 8.37516 18.7428 8.37516C16.5382 8.37516 14.4239 9.25094 12.865 10.8098C11.3061 12.3687 10.4303 14.483 10.4303 16.6877ZM15.1803 16.6877H22.3053C22.3053 15.7428 21.93 14.8367 21.2619 14.1686C20.5938 13.5005 19.6876 13.1252 18.7428 13.1252C17.798 13.1252 16.8918 13.5005 16.2237 14.1686C15.5556 14.8367 15.1803 15.7428 15.1803 16.6877ZM31.4871 16.6877H34.0307C34.21 15.9858 34.2267 15.2522 34.0795 14.5429C33.9324 13.8336 33.6253 13.1672 33.1816 12.5946C32.7379 12.0219 32.1694 11.5581 31.5193 11.2385C30.8692 10.9189 30.1547 10.7518 29.4303 10.7502C28.8603 10.7502 28.3188 10.8499 27.8153 11.0328C28.2357 11.7073 28.5824 12.434 28.8484 13.1964C29.3008 13.0842 29.7761 13.1073 30.2155 13.2628C30.6548 13.4184 31.0388 13.6995 31.3198 14.0713C31.6008 14.4431 31.7665 14.8893 31.7962 15.3544C31.8259 15.8195 31.7184 16.2831 31.4871 16.6877ZM28.2428 32.1252H16.3678V33.3127C16.3678 33.6276 16.4929 33.9296 16.7156 34.1523C16.9383 34.375 17.2404 34.5002 17.5553 34.5002H27.0553C27.3702 34.5002 27.6723 34.375 27.895 34.1523C28.1177 33.9296 28.2428 33.6276 28.2428 33.3127V32.1252ZM15.5318 29.7502H29.0788C32.8456 28.5389 35.2301 25.1142 36.2371 19.0627H8.37355C9.38055 25.1142 11.7651 28.5389 15.5318 29.7502Z" fill="#067B18"/>
</svg>
