<svg width="35" height="35" viewBox="0 0 35 35" fill="none" xmlns="http://www.w3.org/2000/svg">
<path fill-rule="evenodd" clip-rule="evenodd" d="M29.1668 5.83334H5.8335C5.44672 5.83334 5.07579 5.98698 4.8023 6.26047C4.52881 6.53396 4.37516 6.9049 4.37516 7.29167V27.7083C4.37516 28.0951 4.52881 28.466 4.8023 28.7395C5.07579 29.013 5.44672 29.1667 5.8335 29.1667H29.1668C29.5536 29.1667 29.9245 29.013 30.198 28.7395C30.4715 28.466 30.6252 28.0951 30.6252 27.7083V7.29167C30.6252 6.9049 30.4715 6.53396 30.198 6.26047C29.9245 5.98698 29.5536 5.83334 29.1668 5.83334ZM5.8335 2.91667C4.67317 2.91667 3.56038 3.37761 2.7399 4.19808C1.91943 5.01855 1.4585 6.13135 1.4585 7.29167V27.7083C1.4585 28.8687 1.91943 29.9815 2.7399 30.8019C3.56038 31.6224 4.67317 32.0833 5.8335 32.0833H29.1668C30.3272 32.0833 31.44 31.6224 32.2604 30.8019C33.0809 29.9815 33.5418 28.8687 33.5418 27.7083V7.29167C33.5418 6.13135 33.0809 5.01855 32.2604 4.19808C31.44 3.37761 30.3272 2.91667 29.1668 2.91667H5.8335ZM8.75016 10.2083H11.6668V13.125H8.75016V10.2083ZM16.0418 10.2083C15.6551 10.2083 15.2841 10.362 15.0106 10.6355C14.7371 10.909 14.5835 11.2799 14.5835 11.6667C14.5835 12.0534 14.7371 12.4244 15.0106 12.6979C15.2841 12.9714 15.6551 13.125 16.0418 13.125H24.7918C25.1786 13.125 25.5495 12.9714 25.823 12.6979C26.0965 12.4244 26.2502 12.0534 26.2502 11.6667C26.2502 11.2799 26.0965 10.909 25.823 10.6355C25.5495 10.362 25.1786 10.2083 24.7918 10.2083H16.0418ZM11.6668 16.0417H8.75016V18.9583H11.6668V16.0417ZM14.5835 17.5C14.5835 17.1132 14.7371 16.7423 15.0106 16.4688C15.2841 16.1953 15.6551 16.0417 16.0418 16.0417H24.7918C25.1786 16.0417 25.5495 16.1953 25.823 16.4688C26.0965 16.7423 26.2502 17.1132 26.2502 17.5C26.2502 17.8868 26.0965 18.2577 25.823 18.5312C25.5495 18.8047 25.1786 18.9583 24.7918 18.9583H16.0418C15.6551 18.9583 15.2841 18.8047 15.0106 18.5312C14.7371 18.2577 14.5835 17.8868 14.5835 17.5ZM11.6668 21.875H8.75016V24.7917H11.6668V21.875ZM14.5835 23.3333C14.5835 22.9466 14.7371 22.5756 15.0106 22.3021C15.2841 22.0287 15.6551 21.875 16.0418 21.875H24.7918C25.1786 21.875 25.5495 22.0287 25.823 22.3021C26.0965 22.5756 26.2502 22.9466 26.2502 23.3333C26.2502 23.7201 26.0965 24.091 25.823 24.3645C25.5495 24.638 25.1786 24.7917 24.7918 24.7917H16.0418C15.6551 24.7917 15.2841 24.638 15.0106 24.3645C14.7371 24.091 14.5835 23.7201 14.5835 23.3333Z" fill="white"/>
</svg>
