<svg width="44" height="44" viewBox="0 0 44 44" fill="none" xmlns="http://www.w3.org/2000/svg">
<rect width="44" height="44" fill="white"/>
<path d="M9.76247 7.24165C9.54858 8.00554 9.3958 8.77737 9.30413 9.55715C9.21247 10.3369 9.16663 11.1234 9.16663 11.9166C9.16663 13.8417 9.44163 15.6982 9.99163 17.4863C10.5416 19.2744 11.3361 20.9623 12.375 22.55C12.6194 22.8861 12.7264 23.2528 12.6958 23.65C12.6652 24.0472 12.5125 24.3833 12.2375 24.6583C11.9625 24.9333 11.6416 25.0555 11.275 25.025C10.9083 24.9944 10.6027 24.8111 10.3583 24.475C9.07497 22.6417 8.09719 20.6555 7.42497 18.5167C6.75275 16.3778 6.41663 14.1778 6.41663 11.9166C6.41663 11.0917 6.46247 10.2667 6.55413 9.44165C6.6458 8.61665 6.7833 7.79165 6.96663 6.96665L4.7208 9.21248C4.4458 9.48748 4.12497 9.62498 3.7583 9.62498C3.39163 9.62498 3.0708 9.48748 2.7958 9.21248C2.5208 8.93748 2.3833 8.61665 2.3833 8.24998C2.3833 7.88332 2.5208 7.56248 2.7958 7.28748L6.96663 3.11665C7.3333 2.74998 7.76108 2.56665 8.24997 2.56665C8.73886 2.56665 9.16663 2.74998 9.5333 3.11665L13.7041 7.28748C13.9791 7.56248 14.1166 7.88332 14.1166 8.24998C14.1166 8.61665 13.9791 8.93748 13.7041 9.21248C13.4291 9.48748 13.1083 9.61765 12.7416 9.60298C12.375 9.58832 12.0541 9.45815 11.7791 9.21248L9.76247 7.24165ZM30.1583 38.1791C29.4555 38.4236 28.7454 38.5385 28.028 38.5238C27.3105 38.5092 26.6151 38.3331 25.9416 37.9958L15.5833 33.1833C15.125 32.9694 14.8041 32.626 14.6208 32.153C14.4375 31.68 14.4527 31.2137 14.6666 30.7541L14.7583 30.5708C15.0639 29.9597 15.4916 29.4635 16.0416 29.0821C16.5916 28.7008 17.2027 28.479 17.875 28.4167L20.9916 28.1875L15.8583 14.1166C15.675 13.6278 15.6902 13.1615 15.9041 12.7178C16.118 12.2741 16.4694 11.9613 16.9583 11.7792C17.4472 11.597 17.9129 11.6123 18.3553 11.825C18.7977 12.0376 19.1112 12.389 19.2958 12.8792L25.2541 29.2416C25.468 29.8222 25.4069 30.3649 25.0708 30.8696C24.7347 31.3744 24.2611 31.6568 23.65 31.7166L21.4958 31.8542L27.5 34.65C27.7139 34.7416 27.943 34.7954 28.1875 34.8113C28.4319 34.8272 28.6611 34.804 28.875 34.7416L36.0708 32.1291C37.018 31.793 37.7055 31.1587 38.1333 30.2261C38.5611 29.2936 38.6069 28.3543 38.2708 27.4083L35.75 20.5333C35.5666 20.0444 35.5819 19.5782 35.7958 19.1345C36.0097 18.6908 36.3611 18.3779 36.85 18.1958C37.3389 18.0137 37.8045 18.029 38.247 18.2416C38.6894 18.4543 39.0029 18.8057 39.1875 19.2958L41.7083 26.1708C42.4111 28.0958 42.342 29.967 41.5011 31.7845C40.6602 33.6019 39.2779 34.8626 37.3541 35.5667L30.1583 38.1791ZM24.6583 16.775C25.1472 16.5916 25.6135 16.6069 26.0571 16.8208C26.5008 17.0347 26.8137 17.3861 26.9958 17.875L28.875 23.0083C29.0583 23.4972 29.043 23.9708 28.8291 24.4291C28.6152 24.8875 28.2639 25.2083 27.775 25.3917C27.2861 25.575 26.8125 25.5597 26.3541 25.3458C25.8958 25.1319 25.575 24.7805 25.3916 24.2917L23.5583 19.1125C23.375 18.6236 23.3902 18.1573 23.6041 17.7136C23.818 17.27 24.1694 16.9571 24.6583 16.775ZM30.4333 16.6375C30.9222 16.4541 31.3885 16.4694 31.8321 16.6833C32.2758 16.8972 32.5887 17.2486 32.7708 17.7375L34.0083 21.175C34.1916 21.6639 34.1843 22.1301 33.9863 22.5738C33.7883 23.0175 33.4442 23.3304 32.9541 23.5125C32.464 23.6946 31.9904 23.6793 31.5333 23.4667C31.0762 23.254 30.7554 22.9026 30.5708 22.4125L29.3333 18.975C29.15 18.4861 29.1652 18.0204 29.3791 17.578C29.593 17.1355 29.9444 16.822 30.4333 16.6375Z" fill="black"/>
</svg>
