<svg width="35" height="35" viewBox="0 0 35 35" fill="none" xmlns="http://www.w3.org/2000/svg">
<path d="M13.125 4.37499V1.45833H21.875V4.37499H13.125ZM16.0417 20.4167H18.9583V11.6667H16.0417V20.4167ZM17.5 32.0833C15.7014 32.0833 14.0058 31.7372 12.4133 31.045C10.8208 30.3528 9.42958 29.4107 8.23958 28.2187C7.04958 27.0268 6.10799 25.6351 5.41479 24.0435C4.7216 22.452 4.375 20.7569 4.375 18.9583C4.375 17.1597 4.7216 15.4642 5.41479 13.8717C6.10799 12.2792 7.04958 10.8879 8.23958 9.69791C9.42958 8.50791 10.8213 7.56631 12.4148 6.87312C14.0083 6.17992 15.7033 5.83333 17.5 5.83333C19.0069 5.83333 20.4531 6.07638 21.8385 6.56249C23.224 7.04861 24.5243 7.75347 25.7396 8.67708L27.7812 6.63541L29.8229 8.67708L27.7812 10.7187C28.7049 11.934 29.4097 13.2344 29.8958 14.6198C30.3819 16.0052 30.625 17.4514 30.625 18.9583C30.625 20.7569 30.2784 22.4525 29.5852 24.045C28.892 25.6375 27.9504 27.0287 26.7604 28.2187C25.5704 29.4087 24.1787 30.3508 22.5852 31.045C20.9917 31.7392 19.2967 32.0853 17.5 32.0833ZM17.5 29.1667C20.3194 29.1667 22.7257 28.1701 24.7188 26.1771C26.7118 24.184 27.7083 21.7778 27.7083 18.9583C27.7083 16.1389 26.7118 13.7326 24.7188 11.7396C22.7257 9.74652 20.3194 8.74999 17.5 8.74999C14.6806 8.74999 12.2743 9.74652 10.2813 11.7396C8.28819 13.7326 7.29167 16.1389 7.29167 18.9583C7.29167 21.7778 8.28819 24.184 10.2813 26.1771C12.2743 28.1701 14.6806 29.1667 17.5 29.1667Z" fill="white"/>
</svg>
